<?xml version="1.0" encoding="UTF-8"?>
<!DOCTYPE svg PUBLIC "-//W3C//DTD SVG 1.1//EN" "http://www.w3.org/Graphics/SVG/1.1/DTD/svg11.dtd">
<!-- Creator: CorelDRAW 2020 (64-Bit) -->
<svg xmlns="http://www.w3.org/2000/svg" xml:space="preserve" width="8.5in" height="11in" version="1.1" style="shape-rendering:geometricPrecision; text-rendering:geometricPrecision; image-rendering:optimizeQuality; fill-rule:evenodd; clip-rule:evenodd"
viewBox="0 0 8500 11000"
 xmlns:xlink="http://www.w3.org/1999/xlink"
 xmlns:xodm="http://www.corel.com/coreldraw/odm/2003">
 <defs>
  <style type="text/css">
   <![CDATA[
    .fil0 {fill:#FEFEFE}
   ]]>
  </style>
 </defs>
 <g id="Layer_x0020_1">
  <metadata id="CorelCorpID_0Corel-Layer"/>
  <path class="fil0" d="M6399.62 5927.52l-968.38 0 -1399.63 1621.51c-288.11,287.52 -825.65,155.76 -583.84,-204.42l777.85 -1417.09 -1705.51 0c-145.56,0 -298.48,-116.27 -264.65,-250l735.13 -2905.33 2440.65 0 968.38 0 0 3155.33zm-1898.43 -145.08l-1805.56 0c-131.57,0 -269.81,-103.93 -239.22,-223.45l664.52 -2596.75 2206.19 0 0 2820.2 -1327.67 1567.34c-260.43,256.98 -549.97,178.52 -331.39,-143.41l833.15 -1423.94zm1724.8 -7.7l-697.49 0 0 -2849.76 697.49 0 0 2849.76z"/>
 </g>
</svg>
